<?xml version="1.0" encoding="UTF-8"?>
<svg xmlns="http://www.w3.org/2000/svg" xmlns:xlink="http://www.w3.org/1999/xlink" width="650.56pt" height="211pt" viewBox="0 0 650.56 211" version="1.1">
<defs>
<clipPath id="clip1">
  <path d="M 559 15 L 650.558594 15 L 650.558594 108 L 559 108 Z M 559 15 "/>
</clipPath>
</defs>
<g id="surface1">
<path style=" stroke:none;fill-rule:nonzero;fill:rgb(10.588074%,24.705505%,58.03833%);fill-opacity:1;" d="M 164.34375 46.011719 C 164.34375 31.984375 176.386719 23.941406 186.519531 23.941406 L 214.957031 23.941406 C 219.105469 23.941406 222.324219 27.167969 222.324219 31.316406 C 222.324219 36.226563 218.132813 38.703125 214.957031 38.703125 L 186.585938 38.703125 C 181.738281 38.703125 179.195313 42.648438 179.195313 46.011719 C 179.195313 49.488281 181.695313 53.464844 186.585938 53.464844 L 203.914063 53.464844 C 217.273438 53.464844 226.128906 64.703125 226.128906 75.53125 C 226.128906 86.785156 217.691406 97.902344 203.914063 97.902344 L 175.640625 97.902344 C 170.890625 97.902344 168.148438 93.972656 168.148438 90.382813 C 168.148438 86.445313 171.191406 82.832031 175.535156 82.832031 L 203.648438 82.832031 C 208.570313 82.832031 210.914063 78.3125 210.914063 75.53125 C 210.914063 72.847656 208.695313 68.378906 203.648438 68.378906 L 186.519531 68.378906 C 178.769531 68.378906 164.34375 62.28125 164.34375 46.011719 "/>
<path style=" stroke:none;fill-rule:nonzero;fill:rgb(10.588074%,24.705505%,58.03833%);fill-opacity:1;" d="M 414.820313 46.011719 C 414.820313 31.984375 426.859375 23.941406 436.992188 23.941406 L 465.429688 23.941406 C 469.578125 23.941406 472.796875 27.167969 472.796875 31.316406 C 472.796875 36.226563 468.605469 38.703125 465.429688 38.703125 L 437.058594 38.703125 C 432.210938 38.703125 429.667969 42.648438 429.667969 46.011719 C 429.667969 49.488281 432.171875 53.464844 437.058594 53.464844 L 454.390625 53.464844 C 467.746094 53.464844 476.605469 64.703125 476.605469 75.53125 C 476.605469 86.785156 468.164063 97.902344 454.390625 97.902344 L 426.113281 97.902344 C 421.363281 97.902344 418.621094 93.972656 418.621094 90.382813 C 418.621094 86.445313 421.664063 82.832031 426.011719 82.832031 L 454.125 82.832031 C 459.042969 82.832031 461.386719 78.3125 461.386719 75.53125 C 461.386719 72.847656 459.167969 68.378906 454.125 68.378906 L 436.992188 68.378906 C 429.242188 68.378906 414.820313 62.28125 414.820313 46.011719 "/>
<path style=" stroke:none;fill-rule:nonzero;fill:rgb(10.588074%,24.705505%,58.03833%);fill-opacity:1;" d="M 479.410156 46.011719 C 479.410156 31.984375 491.453125 23.941406 501.585938 23.941406 L 530.023438 23.941406 C 534.171875 23.941406 537.390625 27.167969 537.390625 31.316406 C 537.390625 36.226563 533.199219 38.703125 530.023438 38.703125 L 501.652344 38.703125 C 496.804688 38.703125 494.261719 42.648438 494.261719 46.011719 C 494.261719 49.488281 496.765625 53.464844 501.652344 53.464844 L 518.980469 53.464844 C 532.339844 53.464844 541.195313 64.703125 541.195313 75.53125 C 541.195313 86.785156 532.757813 97.902344 518.980469 97.902344 L 490.707031 97.902344 C 485.957031 97.902344 483.214844 93.972656 483.214844 90.382813 C 483.214844 86.445313 486.257813 82.832031 490.605469 82.832031 L 518.71875 82.832031 C 523.636719 82.832031 525.980469 78.3125 525.980469 75.53125 C 525.980469 72.847656 523.761719 68.378906 518.71875 68.378906 L 501.585938 68.378906 C 493.835938 68.378906 479.410156 62.28125 479.410156 46.011719 "/>
<g clip-path="url(#clip1)" clip-rule="nonzero">
<path style=" stroke:none;fill-rule:nonzero;fill:rgb(0%,68.234253%,93.72406%);fill-opacity:1;" d="M 628.6875 69.140625 L 612.386719 69.140625 L 612.386719 85.441406 C 612.386719 89.585938 609.027344 92.941406 604.886719 92.941406 C 600.742188 92.941406 597.386719 89.585938 597.386719 85.441406 L 597.386719 69.140625 L 581.082031 69.140625 C 576.941406 69.140625 573.582031 65.78125 573.582031 61.640625 C 573.582031 57.496094 576.941406 54.140625 581.082031 54.140625 L 597.386719 54.140625 L 597.386719 37.839844 C 597.386719 33.695313 600.742188 30.339844 604.886719 30.339844 C 609.027344 30.339844 612.386719 33.695313 612.386719 37.839844 L 612.386719 54.140625 L 628.6875 54.140625 C 632.828125 54.140625 636.1875 57.496094 636.1875 61.640625 C 636.1875 65.78125 632.828125 69.140625 628.6875 69.140625 Z M 604.882813 15.964844 C 579.65625 15.964844 559.203125 36.414063 559.203125 61.640625 C 559.203125 86.867188 579.65625 107.316406 604.882813 107.316406 C 630.113281 107.316406 650.5625 86.867188 650.5625 61.640625 C 650.5625 36.414063 630.113281 15.964844 604.882813 15.964844 "/>
</g>
<path style=" stroke:none;fill-rule:nonzero;fill:rgb(10.588074%,24.705505%,58.03833%);fill-opacity:1;" d="M 242.277344 23.941406 C 238.136719 23.941406 234.777344 27.296875 234.777344 31.441406 L 234.777344 90.402344 C 234.777344 94.542969 238.136719 97.902344 242.277344 97.902344 C 246.417969 97.902344 249.777344 94.542969 249.777344 90.402344 L 249.777344 31.441406 C 249.777344 27.296875 246.417969 23.941406 242.277344 23.941406 "/>
<path style=" stroke:none;fill-rule:nonzero;fill:rgb(10.588074%,24.705505%,58.03833%);fill-opacity:1;" d="M 36.90625 83.058594 C 24.722656 83.058594 14.84375 73.179688 14.84375 60.996094 C 14.84375 48.8125 24.722656 38.933594 36.90625 38.933594 C 49.089844 38.933594 58.96875 48.8125 58.96875 60.996094 C 58.96875 73.179688 49.089844 83.058594 36.90625 83.058594 Z M 36.90625 24.089844 C 28.703125 24.089844 21.128906 26.769531 15 31.296875 L 15 7.5 C 15 3.359375 11.640625 0 7.5 0 C 3.359375 0 0 3.359375 0 7.5 C 0 7.5 0 60.96875 0 60.996094 C 0 81.378906 16.523438 97.902344 36.90625 97.902344 C 57.289063 97.902344 73.8125 81.378906 73.8125 60.996094 C 73.8125 40.613281 57.289063 24.089844 36.90625 24.089844 "/>
<path style=" stroke:none;fill-rule:nonzero;fill:rgb(0%,68.234253%,93.72406%);fill-opacity:1;" d="M 258.382813 196.15625 C 246.199219 196.15625 236.320313 186.277344 236.320313 174.09375 C 236.320313 161.910156 246.199219 152.03125 258.382813 152.03125 C 270.566406 152.03125 280.445313 161.910156 280.445313 174.09375 C 280.445313 186.277344 270.566406 196.15625 258.382813 196.15625 Z M 258.382813 137.1875 C 250.179688 137.1875 242.605469 139.867188 236.480469 144.394531 L 236.480469 120.601563 C 236.480469 116.457031 233.121094 113.101563 228.980469 113.101563 C 224.835938 113.101563 221.480469 116.457031 221.480469 120.601563 C 221.480469 120.601563 221.480469 174.066406 221.480469 174.09375 C 221.480469 194.476563 238 211 258.382813 211 C 278.765625 211 295.289063 194.476563 295.289063 174.09375 C 295.289063 153.710938 278.765625 137.1875 258.382813 137.1875 "/>
<path style=" stroke:none;fill-rule:nonzero;fill:rgb(10.588074%,24.705505%,58.03833%);fill-opacity:1;" d="M 148.46875 23.945313 C 144.324219 23.945313 140.96875 27.300781 140.96875 31.445313 L 141.027344 61.523438 C 140.742188 73.410156 131.027344 82.960938 119.074219 82.960938 C 107.121094 82.960938 97.40625 73.410156 97.125 61.523438 L 97.183594 31.445313 C 97.183594 27.300781 93.824219 23.945313 89.683594 23.945313 C 85.539063 23.945313 82.183594 27.300781 82.183594 31.445313 L 82.183594 61.523438 C 82.46875 81.660156 98.871094 97.902344 119.074219 97.902344 C 139.28125 97.902344 155.683594 81.660156 155.96875 61.523438 L 155.96875 31.445313 C 155.96875 27.300781 152.609375 23.945313 148.46875 23.945313 "/>
<path style=" stroke:none;fill-rule:nonzero;fill:rgb(0%,68.234253%,93.72406%);fill-opacity:1;" d="M 125.070313 137.042969 C 120.929688 137.042969 117.570313 140.402344 117.570313 144.542969 L 117.628906 174.625 C 117.347656 186.511719 107.632813 196.058594 95.675781 196.058594 C 83.898438 196.058594 74.3125 186.78125 73.765625 175.136719 C 73.769531 174.964844 73.78125 174.796875 73.785156 174.625 L 73.785156 144.542969 C 73.785156 140.402344 70.425781 137.042969 66.285156 137.042969 C 62.144531 137.042969 58.785156 140.402344 58.785156 144.542969 L 58.785156 174.625 C 58.789063 174.796875 58.800781 174.964844 58.804688 175.136719 C 58.257813 186.78125 48.671875 196.058594 36.894531 196.058594 C 24.941406 196.058594 15.222656 186.511719 14.941406 174.625 L 15 144.542969 C 15 140.402344 11.644531 137.042969 7.5 137.042969 C 3.359375 137.042969 0 140.402344 0 144.542969 L 0 174.625 C 0.285156 194.761719 16.6875 211 36.894531 211 C 48.890625 211 59.546875 205.273438 66.285156 196.40625 C 73.023438 205.273438 83.679688 211 95.675781 211 C 115.882813 211 132.285156 194.761719 132.570313 174.625 L 132.570313 144.542969 C 132.570313 140.402344 129.214844 137.042969 125.070313 137.042969 "/>
<path style=" stroke:none;fill-rule:nonzero;fill:rgb(10.588074%,24.705505%,58.03833%);fill-opacity:1;" d="M 266.066406 97.902344 C 270.207031 97.902344 273.566406 94.542969 273.566406 90.402344 L 273.507813 60.320313 C 273.789063 48.433594 283.507813 38.886719 295.460938 38.886719 C 307.410156 38.886719 317.128906 48.433594 317.410156 60.320313 L 317.351563 90.402344 C 317.351563 94.542969 320.710938 97.902344 324.851563 97.902344 C 328.992188 97.902344 332.351563 94.542969 332.351563 90.402344 L 332.351563 60.320313 C 332.066406 40.183594 315.664063 23.945313 295.460938 23.945313 C 275.253906 23.945313 258.851563 40.183594 258.566406 60.320313 L 258.566406 90.402344 C 258.566406 94.542969 261.925781 97.902344 266.066406 97.902344 "/>
<path style=" stroke:none;fill-rule:nonzero;fill:rgb(10.588074%,24.705505%,58.03833%);fill-opacity:1;" d="M 249.777344 8.160156 C 249.777344 12.304688 246.417969 15.660156 242.277344 15.660156 C 238.132813 15.660156 234.777344 12.304688 234.777344 8.160156 C 234.777344 4.019531 238.132813 0.660156 242.277344 0.660156 C 246.417969 0.660156 249.777344 4.019531 249.777344 8.160156 "/>
<path style=" stroke:none;fill-rule:nonzero;fill:rgb(10.588074%,24.705505%,58.03833%);fill-opacity:1;" d="M 355.832031 60.996094 C 355.832031 48.867188 365.664063 39.03125 377.796875 39.03125 C 381.125 39.03125 384.28125 39.777344 387.109375 41.105469 L 357.867188 70.230469 C 356.5625 67.425781 355.832031 64.296875 355.832031 60.996094 Z M 408.539063 68.519531 C 405.109375 66.195313 400.445313 67.09375 398.125 70.527344 C 398.070313 70.605469 389.367188 82.960938 377.796875 82.960938 C 374.449219 82.960938 371.28125 82.210938 368.441406 80.871094 L 403.878906 45.59375 C 406.816406 42.671875 406.824219 37.921875 403.902344 34.988281 C 401.941406 33.019531 393.269531 24.089844 377.796875 24.089844 C 357.410156 24.089844 340.890625 40.613281 340.890625 60.996094 C 340.890625 81.378906 357.410156 97.902344 377.796875 97.902344 C 398.21875 97.902344 409.773438 80.078125 410.546875 78.933594 C 412.867188 75.503906 411.96875 70.839844 408.539063 68.519531 "/>
<path style=" stroke:none;fill-rule:nonzero;fill:rgb(0%,68.234253%,93.72406%);fill-opacity:1;" d="M 156.9375 174.09375 C 156.9375 161.964844 166.769531 152.128906 178.902344 152.128906 C 182.230469 152.128906 185.386719 152.875 188.214844 154.203125 L 158.972656 183.332031 C 157.671875 180.523438 156.9375 177.394531 156.9375 174.09375 Z M 209.644531 181.617188 C 206.21875 179.296875 201.554688 180.195313 199.230469 183.625 C 199.179688 183.703125 190.472656 196.058594 178.902344 196.058594 C 175.554688 196.058594 172.386719 195.308594 169.550781 193.96875 L 204.984375 158.691406 C 207.921875 155.769531 207.933594 151.023438 205.011719 148.085938 C 203.050781 146.117188 194.378906 137.1875 178.902344 137.1875 C 158.519531 137.1875 141.996094 153.710938 141.996094 174.09375 C 141.996094 194.476563 158.519531 211 178.902344 211 C 199.324219 211 210.878906 193.175781 211.652344 192.03125 C 213.976563 188.601563 213.074219 183.941406 209.644531 181.617188 "/>
<path style=" stroke:none;fill-rule:nonzero;fill:rgb(56.861877%,56.077576%,56.274414%);fill-opacity:1;" d="M 351.375 161.363281 C 350.328125 162.785156 348.96875 163.941406 347.296875 164.828125 C 345.625 165.714844 343.613281 166.15625 341.269531 166.15625 C 339.25 166.15625 337.382813 165.8125 335.675781 165.128906 C 333.964844 164.441406 332.492188 163.480469 331.257813 162.242188 C 330.023438 161.011719 329.058594 159.535156 328.359375 157.832031 C 327.660156 156.117188 327.3125 154.242188 327.3125 152.195313 C 327.3125 150.125 327.664063 148.234375 328.378906 146.523438 C 329.089844 144.816406 330.074219 143.355469 331.332031 142.148438 C 332.59375 140.9375 334.085938 139.992188 335.804688 139.320313 C 337.527344 138.648438 339.398438 138.3125 341.421875 138.3125 C 342.316406 138.3125 343.230469 138.398438 344.152344 138.574219 C 345.074219 138.746094 345.960938 139.011719 346.808594 139.359375 C 347.65625 139.710938 348.429688 140.140625 349.128906 140.648438 C 349.828125 141.160156 350.429688 141.753906 350.929688 142.429688 L 348.007813 144.671875 C 347.359375 143.773438 346.441406 143.03125 345.257813 142.445313 C 344.070313 141.859375 342.789063 141.566406 341.421875 141.566406 C 339.871094 141.566406 338.480469 141.847656 337.246094 142.410156 C 336.011719 142.972656 334.957031 143.738281 334.085938 144.710938 C 333.210938 145.683594 332.535156 146.8125 332.0625 148.097656 C 331.589844 149.386719 331.351563 150.75 331.351563 152.195313 C 331.351563 153.691406 331.582031 155.09375 332.046875 156.390625 C 332.507813 157.6875 333.167969 158.8125 334.027344 159.773438 C 334.890625 160.734375 335.9375 161.488281 337.171875 162.039063 C 338.40625 162.589844 339.785156 162.863281 341.308594 162.863281 C 342.804688 162.863281 344.164063 162.5625 345.386719 161.964844 C 346.609375 161.363281 347.621094 160.492188 348.417969 159.347656 L 351.375 161.363281 "/>
<path style=" stroke:none;fill-rule:nonzero;fill:rgb(56.861877%,56.077576%,56.274414%);fill-opacity:1;" d="M 368.816406 156.59375 C 368.816406 155.746094 368.683594 154.9375 368.421875 154.167969 C 368.160156 153.398438 367.777344 152.722656 367.277344 152.136719 C 366.777344 151.550781 366.15625 151.085938 365.417969 150.734375 C 364.679688 150.386719 363.835938 150.214844 362.886719 150.214844 C 361.933594 150.214844 361.089844 150.386719 360.351563 150.734375 C 359.609375 151.085938 358.992188 151.550781 358.492188 152.136719 C 357.992188 152.722656 357.609375 153.398438 357.347656 154.167969 C 357.082031 154.9375 356.953125 155.746094 356.953125 156.59375 C 356.953125 157.4375 357.082031 158.246094 357.347656 159.019531 C 357.609375 159.789063 357.992188 160.476563 358.492188 161.070313 C 358.992188 161.667969 359.609375 162.144531 360.351563 162.488281 C 361.089844 162.839844 361.933594 163.015625 362.886719 163.015625 C 363.835938 163.015625 364.679688 162.839844 365.417969 162.488281 C 366.15625 162.144531 366.777344 161.667969 367.277344 161.070313 C 367.777344 160.476563 368.160156 159.789063 368.421875 159.019531 C 368.683594 158.246094 368.816406 157.4375 368.816406 156.59375 Z M 372.484375 156.574219 C 372.484375 157.945313 372.238281 159.207031 371.753906 160.355469 C 371.269531 161.503906 370.59375 162.496094 369.734375 163.332031 C 368.871094 164.167969 367.855469 164.8125 366.683594 165.277344 C 365.511719 165.738281 364.25 165.96875 362.902344 165.96875 C 361.554688 165.96875 360.296875 165.738281 359.121094 165.277344 C 357.949219 164.8125 356.9375 164.167969 356.089844 163.332031 C 355.242188 162.496094 354.574219 161.503906 354.089844 160.355469 C 353.601563 159.207031 353.359375 157.945313 353.359375 156.574219 C 353.359375 155.203125 353.601563 153.949219 354.089844 152.8125 C 354.574219 151.679688 355.242188 150.699219 356.089844 149.878906 C 356.9375 149.054688 357.949219 148.410156 359.121094 147.949219 C 360.296875 147.484375 361.554688 147.257813 362.902344 147.257813 C 364.25 147.257813 365.511719 147.484375 366.683594 147.949219 C 367.855469 148.410156 368.871094 149.054688 369.734375 149.878906 C 370.59375 150.699219 371.269531 151.679688 371.753906 152.8125 C 372.238281 153.949219 372.484375 155.203125 372.484375 156.574219 "/>
<path style=" stroke:none;fill-rule:nonzero;fill:rgb(56.861877%,56.077576%,56.274414%);fill-opacity:1;" d="M 382.945313 148.246094 C 383.929688 147.589844 385.097656 147.257813 386.441406 147.257813 C 387.640625 147.257813 388.71875 147.53125 389.679688 148.082031 C 390.640625 148.628906 391.394531 149.539063 391.945313 150.8125 C 392.542969 149.664063 393.378906 148.785156 394.453125 148.171875 C 395.523438 147.5625 396.699219 147.257813 397.972656 147.257813 C 399.117188 147.257813 400.105469 147.449219 400.929688 147.835938 C 401.75 148.222656 402.4375 148.738281 402.984375 149.390625 C 403.535156 150.039063 403.941406 150.796875 404.203125 151.671875 C 404.464844 152.542969 404.597656 153.480469 404.597656 154.480469 L 404.597656 165.480469 L 401.078125 165.480469 L 401.078125 155.640625 C 401.078125 154.914063 401.015625 154.230469 400.890625 153.582031 C 400.765625 152.933594 400.554688 152.359375 400.253906 151.859375 C 399.953125 151.359375 399.554688 150.960938 399.054688 150.660156 C 398.558594 150.363281 397.921875 150.214844 397.148438 150.214844 C 396.347656 150.214844 395.660156 150.382813 395.089844 150.71875 C 394.515625 151.054688 394.046875 151.492188 393.6875 152.027344 C 393.324219 152.5625 393.0625 153.167969 392.898438 153.84375 C 392.738281 154.519531 392.65625 155.203125 392.65625 155.902344 L 392.65625 165.480469 L 389.140625 165.480469 L 389.140625 154.929688 C 389.140625 154.230469 389.074219 153.59375 388.949219 153.019531 C 388.824219 152.445313 388.613281 151.953125 388.316406 151.539063 C 388.015625 151.128906 387.628906 150.804688 387.15625 150.566406 C 386.679688 150.332031 386.09375 150.214844 385.394531 150.214844 C 384.097656 150.214844 383.019531 150.742188 382.15625 151.804688 C 381.296875 152.863281 380.867188 154.28125 380.867188 156.050781 L 380.867188 165.480469 L 377.347656 165.480469 L 377.347656 151.5625 C 377.347656 151.085938 377.335938 150.476563 377.3125 149.726563 C 377.285156 148.980469 377.25 148.316406 377.199219 147.742188 L 380.53125 147.742188 C 380.578125 148.191406 380.617188 148.695313 380.644531 149.257813 C 380.667969 149.820313 380.679688 150.285156 380.679688 150.660156 L 380.792969 150.660156 C 381.242188 149.714844 381.957031 148.910156 382.945313 148.246094 "/>
<path style=" stroke:none;fill-rule:nonzero;fill:rgb(56.861877%,56.077576%,56.274414%);fill-opacity:1;" d="M 425.742188 156.574219 C 425.742188 155.753906 425.617188 154.953125 425.367188 154.179688 C 425.117188 153.40625 424.742188 152.722656 424.242188 152.121094 C 423.746094 151.523438 423.128906 151.046875 422.390625 150.699219 C 421.65625 150.351563 420.800781 150.175781 419.828125 150.175781 C 418.929688 150.175781 418.113281 150.351563 417.375 150.699219 C 416.640625 151.046875 416.011719 151.523438 415.484375 152.121094 C 414.964844 152.722656 414.558594 153.40625 414.269531 154.179688 C 413.980469 154.953125 413.839844 155.765625 413.839844 156.613281 C 413.839844 157.460938 413.980469 158.273438 414.269531 159.042969 C 414.558594 159.816406 414.964844 160.496094 415.484375 161.085938 C 416.011719 161.671875 416.640625 162.140625 417.375 162.488281 C 418.113281 162.839844 418.929688 163.015625 419.828125 163.015625 C 420.800781 163.015625 421.65625 162.832031 422.390625 162.472656 C 423.128906 162.105469 423.746094 161.628906 424.242188 161.027344 C 424.742188 160.429688 425.117188 159.742188 425.367188 158.972656 C 425.617188 158.195313 425.742188 157.398438 425.742188 156.574219 Z M 414.0625 174.464844 L 410.546875 174.464844 L 410.546875 147.742188 L 413.988281 147.742188 L 413.988281 150.511719 L 414.101563 150.511719 C 414.675781 149.5625 415.515625 148.785156 416.621094 148.171875 C 417.730469 147.5625 419.015625 147.257813 420.484375 147.257813 C 421.804688 147.257813 423.007813 147.492188 424.089844 147.96875 C 425.171875 148.441406 426.105469 149.105469 426.890625 149.953125 C 427.671875 150.796875 428.273438 151.789063 428.699219 152.925781 C 429.121094 154.0625 429.335938 155.277344 429.335938 156.574219 C 429.335938 157.871094 429.121094 159.097656 428.699219 160.242188 C 428.273438 161.390625 427.679688 162.390625 426.90625 163.234375 C 426.136719 164.085938 425.203125 164.753906 424.105469 165.238281 C 423.011719 165.726563 421.78125 165.96875 420.410156 165.96875 C 419.140625 165.96875 417.945313 165.695313 416.828125 165.148438 C 415.707031 164.597656 414.824219 163.824219 414.175781 162.828125 L 414.0625 162.828125 L 414.0625 174.464844 "/>
<path style=" stroke:none;fill-rule:nonzero;fill:rgb(56.861877%,56.077576%,56.274414%);fill-opacity:1;" d="M 434.234375 149.726563 C 434.210938 148.980469 434.175781 148.316406 434.125 147.742188 L 437.453125 147.742188 C 437.503906 148.191406 437.542969 148.710938 437.566406 149.292969 C 437.59375 149.882813 437.605469 150.363281 437.605469 150.734375 L 437.71875 150.734375 C 438.214844 149.6875 438.945313 148.847656 439.90625 148.210938 C 440.867188 147.574219 441.945313 147.257813 443.144531 147.257813 C 443.691406 147.257813 444.152344 147.308594 444.527344 147.40625 L 444.378906 150.660156 C 443.878906 150.535156 443.34375 150.476563 442.769531 150.476563 C 441.921875 150.476563 441.183594 150.632813 440.5625 150.941406 C 439.9375 151.253906 439.421875 151.671875 439.007813 152.195313 C 438.597656 152.722656 438.289063 153.328125 438.089844 154.011719 C 437.890625 154.695313 437.792969 155.414063 437.792969 156.164063 L 437.792969 165.480469 L 434.273438 165.480469 L 434.273438 151.5625 C 434.273438 151.085938 434.261719 150.476563 434.234375 149.726563 "/>
<path style=" stroke:none;fill-rule:nonzero;fill:rgb(56.861877%,56.077576%,56.274414%);fill-opacity:1;" d="M 461.445313 156.59375 C 461.445313 155.746094 461.3125 154.9375 461.050781 154.167969 C 460.789063 153.398438 460.40625 152.722656 459.90625 152.136719 C 459.40625 151.550781 458.785156 151.085938 458.050781 150.734375 C 457.308594 150.386719 456.464844 150.214844 455.515625 150.214844 C 454.5625 150.214844 453.71875 150.386719 452.980469 150.734375 C 452.238281 151.085938 451.621094 151.550781 451.121094 152.136719 C 450.621094 152.722656 450.238281 153.398438 449.976563 154.167969 C 449.714844 154.9375 449.582031 155.746094 449.582031 156.59375 C 449.582031 157.4375 449.714844 158.246094 449.976563 159.019531 C 450.238281 159.789063 450.621094 160.476563 451.121094 161.070313 C 451.621094 161.667969 452.238281 162.144531 452.980469 162.488281 C 453.71875 162.839844 454.5625 163.015625 455.515625 163.015625 C 456.464844 163.015625 457.308594 162.839844 458.050781 162.488281 C 458.785156 162.144531 459.40625 161.667969 459.90625 161.070313 C 460.40625 160.476563 460.789063 159.789063 461.050781 159.019531 C 461.3125 158.246094 461.445313 157.4375 461.445313 156.59375 Z M 465.113281 156.574219 C 465.113281 157.945313 464.871094 159.207031 464.382813 160.355469 C 463.898438 161.503906 463.222656 162.496094 462.363281 163.332031 C 461.503906 164.167969 460.484375 164.8125 459.3125 165.277344 C 458.140625 165.738281 456.878906 165.96875 455.53125 165.96875 C 454.1875 165.96875 452.925781 165.738281 451.753906 165.277344 C 450.578125 164.8125 449.570313 164.167969 448.722656 163.332031 C 447.871094 162.496094 447.203125 161.503906 446.71875 160.355469 C 446.230469 159.207031 445.988281 157.945313 445.988281 156.574219 C 445.988281 155.203125 446.230469 153.949219 446.71875 152.8125 C 447.203125 151.679688 447.871094 150.699219 448.722656 149.878906 C 449.570313 149.054688 450.578125 148.410156 451.753906 147.949219 C 452.925781 147.484375 454.1875 147.257813 455.53125 147.257813 C 456.878906 147.257813 458.140625 147.484375 459.3125 147.949219 C 460.484375 148.410156 461.503906 149.054688 462.363281 149.878906 C 463.222656 150.699219 463.898438 151.679688 464.382813 152.8125 C 464.871094 153.949219 465.113281 155.203125 465.113281 156.574219 "/>
<path style=" stroke:none;fill-rule:nonzero;fill:rgb(56.861877%,56.077576%,56.274414%);fill-opacity:1;" d="M 475.574219 148.246094 C 476.558594 147.589844 477.726563 147.257813 479.074219 147.257813 C 480.269531 147.257813 481.351563 147.53125 482.3125 148.082031 C 483.269531 148.628906 484.023438 149.539063 484.574219 150.8125 C 485.171875 149.664063 486.007813 148.785156 487.082031 148.171875 C 488.15625 147.5625 489.328125 147.257813 490.601563 147.257813 C 491.746094 147.257813 492.734375 147.449219 493.558594 147.835938 C 494.378906 148.222656 495.066406 148.738281 495.613281 149.390625 C 496.164063 150.039063 496.570313 150.796875 496.832031 151.671875 C 497.09375 152.542969 497.226563 153.480469 497.226563 154.480469 L 497.226563 165.480469 L 493.707031 165.480469 L 493.707031 155.640625 C 493.707031 154.914063 493.644531 154.230469 493.519531 153.582031 C 493.394531 152.933594 493.183594 152.359375 492.882813 151.859375 C 492.585938 151.359375 492.183594 150.960938 491.6875 150.660156 C 491.1875 150.363281 490.550781 150.214844 489.777344 150.214844 C 488.980469 150.214844 488.292969 150.382813 487.71875 150.71875 C 487.144531 151.054688 486.675781 151.492188 486.316406 152.027344 C 485.953125 152.5625 485.691406 153.167969 485.527344 153.84375 C 485.367188 154.519531 485.285156 155.203125 485.285156 155.902344 L 485.285156 165.480469 L 481.769531 165.480469 L 481.769531 154.929688 C 481.769531 154.230469 481.703125 153.59375 481.578125 153.019531 C 481.453125 152.445313 481.242188 151.953125 480.945313 151.539063 C 480.644531 151.128906 480.257813 150.804688 479.785156 150.566406 C 479.308594 150.332031 478.722656 150.214844 478.023438 150.214844 C 476.726563 150.214844 475.648438 150.742188 474.789063 151.804688 C 473.925781 152.863281 473.496094 154.28125 473.496094 156.050781 L 473.496094 165.480469 L 469.980469 165.480469 L 469.980469 151.5625 C 469.980469 151.085938 469.964844 150.476563 469.941406 149.726563 C 469.914063 148.980469 469.878906 148.316406 469.828125 147.742188 L 473.160156 147.742188 C 473.210938 148.191406 473.246094 148.695313 473.273438 149.257813 C 473.296875 149.820313 473.308594 150.285156 473.308594 150.660156 L 473.421875 150.660156 C 473.871094 149.714844 474.589844 148.910156 475.574219 148.246094 "/>
<path style=" stroke:none;fill-rule:nonzero;fill:rgb(56.861877%,56.077576%,56.274414%);fill-opacity:1;" d="M 516.160156 155.039063 C 516.136719 154.34375 516.019531 153.6875 515.808594 153.078125 C 515.59375 152.464844 515.28125 151.933594 514.871094 151.484375 C 514.460938 151.035156 513.945313 150.683594 513.335938 150.417969 C 512.726563 150.15625 512.007813 150.023438 511.183594 150.023438 C 510.4375 150.023438 509.730469 150.15625 509.070313 150.417969 C 508.40625 150.683594 507.835938 151.035156 507.347656 151.484375 C 506.863281 151.933594 506.464844 152.464844 506.148438 153.078125 C 505.839844 153.6875 505.65625 154.34375 505.605469 155.039063 Z M 519.753906 156.464844 C 519.753906 156.660156 519.753906 156.863281 519.753906 157.0625 C 519.753906 157.261719 519.742188 157.460938 519.71875 157.660156 L 505.605469 157.660156 C 505.632813 158.402344 505.800781 159.105469 506.113281 159.761719 C 506.425781 160.417969 506.84375 160.988281 507.367188 161.472656 C 507.890625 161.953125 508.496094 162.332031 509.183594 162.605469 C 509.867188 162.878906 510.597656 163.015625 511.371094 163.015625 C 512.570313 163.015625 513.605469 162.75 514.480469 162.226563 C 515.351563 161.703125 516.035156 161.066406 516.535156 160.316406 L 519.007813 162.300781 C 518.058594 163.558594 516.941406 164.484375 515.65625 165.078125 C 514.371094 165.671875 512.945313 165.96875 511.371094 165.96875 C 510.023438 165.96875 508.777344 165.742188 507.628906 165.292969 C 506.480469 164.847656 505.496094 164.21875 504.671875 163.40625 C 503.851563 162.59375 503.199219 161.613281 502.726563 160.46875 C 502.253906 159.320313 502.015625 158.046875 502.015625 156.648438 C 502.015625 155.277344 502.246094 154.011719 502.710938 152.851563 C 503.171875 151.691406 503.816406 150.699219 504.640625 149.878906 C 505.464844 149.054688 506.441406 148.410156 507.566406 147.949219 C 508.691406 147.484375 509.902344 147.257813 511.203125 147.257813 C 512.503906 147.257813 513.683594 147.46875 514.746094 147.894531 C 515.8125 148.316406 516.710938 148.929688 517.449219 149.726563 C 518.1875 150.523438 518.757813 151.492188 519.15625 152.628906 C 519.554688 153.765625 519.753906 155.039063 519.753906 156.464844 "/>
<path style=" stroke:none;fill-rule:nonzero;fill:rgb(56.861877%,56.077576%,56.274414%);fill-opacity:1;" d="M 533.304688 150.625 L 528.589844 150.625 L 528.589844 159.839844 C 528.589844 160.910156 528.789063 161.675781 529.1875 162.136719 C 529.585938 162.597656 530.222656 162.828125 531.097656 162.828125 C 531.421875 162.828125 531.769531 162.789063 532.144531 162.722656 C 532.519531 162.652344 532.855469 162.550781 533.152344 162.414063 L 533.265625 165.292969 C 532.84375 165.445313 532.375 165.5625 531.863281 165.652344 C 531.351563 165.738281 530.820313 165.78125 530.273438 165.78125 C 528.601563 165.78125 527.320313 165.320313 526.4375 164.398438 C 525.550781 163.476563 525.105469 162.089844 525.105469 160.242188 L 525.105469 150.625 L 521.703125 150.625 L 521.703125 147.742188 L 525.105469 147.742188 L 525.105469 142.652344 L 528.589844 142.652344 L 528.589844 147.742188 L 533.304688 147.742188 L 533.304688 150.625 "/>
<path style=" stroke:none;fill-rule:nonzero;fill:rgb(56.861877%,56.077576%,56.274414%);fill-opacity:1;" d="M 540.488281 165.480469 L 536.972656 165.480469 L 536.972656 147.742188 L 540.488281 147.742188 Z M 541.050781 141.34375 C 541.050781 141.992188 540.820313 142.527344 540.363281 142.953125 C 539.90625 143.378906 539.355469 143.589844 538.710938 143.589844 C 538.066406 143.589844 537.523438 143.371094 537.078125 142.933594 C 536.632813 142.496094 536.410156 141.96875 536.410156 141.34375 C 536.410156 140.695313 536.632813 140.152344 537.078125 139.714844 C 537.523438 139.277344 538.066406 139.0625 538.710938 139.0625 C 539.355469 139.0625 539.90625 139.277344 540.363281 139.714844 C 540.820313 140.152344 541.050781 140.695313 541.050781 141.34375 "/>
<path style=" stroke:none;fill-rule:nonzero;fill:rgb(56.861877%,56.077576%,56.274414%);fill-opacity:1;" d="M 549.097656 156.59375 C 549.097656 157.414063 549.222656 158.210938 549.472656 158.980469 C 549.71875 159.753906 550.09375 160.4375 550.59375 161.035156 C 551.09375 161.632813 551.703125 162.109375 552.429688 162.472656 C 553.148438 162.832031 554 163.015625 554.972656 163.015625 C 555.871094 163.015625 556.6875 162.839844 557.421875 162.488281 C 558.160156 162.144531 558.789063 161.675781 559.3125 161.089844 C 559.839844 160.507813 560.242188 159.828125 560.53125 159.058594 C 560.816406 158.285156 560.960938 157.480469 560.960938 156.632813 C 560.960938 155.785156 560.816406 154.976563 560.53125 154.207031 C 560.242188 153.4375 559.839844 152.753906 559.3125 152.152344 C 558.789063 151.558594 558.160156 151.085938 557.421875 150.734375 C 556.6875 150.386719 555.871094 150.214844 554.972656 150.214844 C 554 150.214844 553.148438 150.386719 552.429688 150.734375 C 551.703125 151.085938 551.09375 151.558594 550.59375 152.152344 C 550.09375 152.753906 549.71875 153.4375 549.472656 154.207031 C 549.222656 154.976563 549.097656 155.773438 549.097656 156.59375 Z M 560.773438 162.675781 C 560.101563 163.746094 559.183594 164.566406 558.023438 165.128906 C 556.863281 165.6875 555.644531 165.96875 554.371094 165.96875 C 553 165.96875 551.765625 165.726563 550.667969 165.238281 C 549.570313 164.753906 548.636719 164.085938 547.859375 163.234375 C 547.089844 162.390625 546.488281 161.390625 546.0625 160.242188 C 545.640625 159.097656 545.429688 157.871094 545.429688 156.574219 C 545.429688 155.277344 545.640625 154.0625 546.0625 152.925781 C 546.488281 151.789063 547.09375 150.796875 547.878906 149.953125 C 548.664063 149.105469 549.605469 148.441406 550.707031 147.96875 C 551.804688 147.492188 553.015625 147.257813 554.335938 147.257813 C 555.78125 147.257813 557.042969 147.5625 558.117188 148.171875 C 559.1875 148.785156 560.035156 149.527344 560.660156 150.398438 L 560.734375 150.398438 L 560.734375 137.1875 L 564.253906 137.1875 L 564.253906 165.480469 L 560.847656 165.480469 L 560.847656 162.675781 L 560.773438 162.675781 "/>
<path style=" stroke:none;fill-rule:nonzero;fill:rgb(56.861877%,56.077576%,56.274414%);fill-opacity:1;" d="M 584.6875 156.59375 C 584.6875 155.746094 584.558594 154.9375 584.296875 154.167969 C 584.03125 153.398438 583.652344 152.722656 583.148438 152.136719 C 582.648438 151.550781 582.027344 151.085938 581.292969 150.734375 C 580.554688 150.386719 579.707031 150.214844 578.757813 150.214844 C 577.804688 150.214844 576.960938 150.386719 576.222656 150.734375 C 575.484375 151.085938 574.863281 151.550781 574.363281 152.136719 C 573.863281 152.722656 573.480469 153.398438 573.21875 154.167969 C 572.957031 154.9375 572.824219 155.746094 572.824219 156.59375 C 572.824219 157.4375 572.957031 158.246094 573.21875 159.019531 C 573.480469 159.789063 573.863281 160.476563 574.363281 161.070313 C 574.863281 161.667969 575.484375 162.144531 576.222656 162.488281 C 576.960938 162.839844 577.804688 163.015625 578.757813 163.015625 C 579.707031 163.015625 580.554688 162.839844 581.292969 162.488281 C 582.027344 162.144531 582.648438 161.667969 583.148438 161.070313 C 583.652344 160.476563 584.03125 159.789063 584.296875 159.019531 C 584.558594 158.246094 584.6875 157.4375 584.6875 156.59375 Z M 588.355469 156.574219 C 588.355469 157.945313 588.113281 159.207031 587.628906 160.355469 C 587.140625 161.503906 586.46875 162.496094 585.605469 163.332031 C 584.746094 164.167969 583.730469 164.8125 582.554688 165.277344 C 581.382813 165.738281 580.121094 165.96875 578.777344 165.96875 C 577.429688 165.96875 576.167969 165.738281 574.996094 165.277344 C 573.820313 164.8125 572.8125 164.167969 571.964844 163.332031 C 571.117188 162.496094 570.449219 161.503906 569.960938 160.355469 C 569.476563 159.207031 569.230469 157.945313 569.230469 156.574219 C 569.230469 155.203125 569.476563 153.949219 569.960938 152.8125 C 570.449219 151.679688 571.117188 150.699219 571.964844 149.878906 C 572.8125 149.054688 573.820313 148.410156 574.996094 147.949219 C 576.167969 147.484375 577.429688 147.257813 578.777344 147.257813 C 580.121094 147.257813 581.382813 147.484375 582.554688 147.949219 C 583.730469 148.410156 584.746094 149.054688 585.605469 149.878906 C 586.46875 150.699219 587.140625 151.679688 587.628906 152.8125 C 588.113281 153.949219 588.355469 155.203125 588.355469 156.574219 "/>
<path style=" stroke:none;fill-rule:nonzero;fill:rgb(56.861877%,56.077576%,56.274414%);fill-opacity:1;" d="M 602.804688 152.234375 C 602.402344 151.585938 601.84375 151.054688 601.117188 150.644531 C 600.394531 150.230469 599.585938 150.023438 598.6875 150.023438 C 598.285156 150.023438 597.886719 150.066406 597.488281 150.15625 C 597.089844 150.242188 596.734375 150.382813 596.421875 150.566406 C 596.109375 150.757813 595.859375 150.992188 595.671875 151.277344 C 595.484375 151.566406 595.394531 151.921875 595.394531 152.347656 C 595.394531 153.09375 595.730469 153.648438 596.402344 154.011719 C 597.074219 154.371094 598.085938 154.707031 599.433594 155.003906 C 600.28125 155.203125 601.066406 155.4375 601.792969 155.714844 C 602.515625 155.988281 603.144531 156.332031 603.683594 156.742188 C 604.21875 157.15625 604.636719 157.648438 604.9375 158.222656 C 605.234375 158.796875 605.386719 159.472656 605.386719 160.242188 C 605.386719 161.289063 605.1875 162.175781 604.785156 162.898438 C 604.386719 163.625 603.855469 164.21875 603.195313 164.679688 C 602.535156 165.140625 601.777344 165.472656 600.929688 165.667969 C 600.082031 165.867188 599.210938 165.96875 598.3125 165.96875 C 596.964844 165.96875 595.648438 165.707031 594.363281 165.183594 C 593.078125 164.660156 592.011719 163.859375 591.164063 162.785156 L 593.671875 160.652344 C 594.144531 161.355469 594.800781 161.9375 595.636719 162.414063 C 596.472656 162.890625 597.390625 163.125 598.386719 163.125 C 598.835938 163.125 599.265625 163.082031 599.679688 162.992188 C 600.089844 162.90625 600.464844 162.765625 600.800781 162.5625 C 601.136719 162.363281 601.40625 162.101563 601.605469 161.777344 C 601.804688 161.453125 601.902344 161.039063 601.902344 160.542969 C 601.902344 159.71875 601.511719 159.105469 600.726563 158.710938 C 599.941406 158.308594 598.785156 157.9375 597.265625 157.585938 C 596.664063 157.4375 596.058594 157.257813 595.449219 157.042969 C 594.835938 156.832031 594.28125 156.535156 593.78125 156.164063 C 593.28125 155.789063 592.878906 155.320313 592.566406 154.761719 C 592.253906 154.199219 592.101563 153.507813 592.101563 152.683594 C 592.101563 151.734375 592.292969 150.917969 592.679688 150.230469 C 593.066406 149.542969 593.570313 148.984375 594.195313 148.546875 C 594.816406 148.109375 595.527344 147.785156 596.328125 147.574219 C 597.125 147.359375 597.949219 147.257813 598.796875 147.257813 C 600.070313 147.257813 601.300781 147.507813 602.484375 148.003906 C 603.667969 148.503906 604.585938 149.226563 605.234375 150.175781 L 602.804688 152.234375 "/>
<path style=" stroke:none;fill-rule:nonzero;fill:rgb(56.861877%,56.077576%,56.274414%);fill-opacity:1;" d="M 340.894531 188.769531 C 340.519531 188.195313 339.960938 187.714844 339.210938 187.328125 C 338.464844 186.941406 337.664063 186.746094 336.816406 186.746094 C 335.894531 186.746094 335.078125 186.921875 334.367188 187.273438 C 333.652344 187.621094 333.050781 188.089844 332.550781 188.675781 C 332.050781 189.261719 331.671875 189.941406 331.40625 190.714844 C 331.144531 191.488281 331.015625 192.300781 331.015625 193.148438 C 331.015625 193.996094 331.144531 194.808594 331.40625 195.582031 C 331.671875 196.355469 332.050781 197.035156 332.550781 197.621094 C 333.050781 198.207031 333.660156 198.675781 334.382813 199.023438 C 335.105469 199.371094 335.929688 199.546875 336.855469 199.546875 C 337.753906 199.546875 338.570313 199.371094 339.304688 199.023438 C 340.042969 198.675781 340.644531 198.203125 341.121094 197.601563 L 343.480469 199.734375 C 342.730469 200.609375 341.796875 201.289063 340.671875 201.773438 C 339.550781 202.261719 338.277344 202.503906 336.855469 202.503906 C 335.480469 202.503906 334.214844 202.277344 333.054688 201.832031 C 331.894531 201.382813 330.890625 200.753906 330.042969 199.941406 C 329.195313 199.132813 328.527344 198.148438 328.039063 197.003906 C 327.554688 195.855469 327.3125 194.570313 327.3125 193.148438 C 327.3125 191.75 327.546875 190.480469 328.019531 189.332031 C 328.496094 188.183594 329.15625 187.195313 330.003906 186.371094 C 330.851563 185.550781 331.855469 184.914063 333.019531 184.464844 C 334.179688 184.015625 335.433594 183.789063 336.777344 183.789063 C 338.027344 183.789063 339.269531 184.039063 340.503906 184.539063 C 341.738281 185.039063 342.71875 185.761719 343.441406 186.710938 L 340.894531 188.769531 "/>
<path style=" stroke:none;fill-rule:nonzero;fill:rgb(56.861877%,56.077576%,56.274414%);fill-opacity:1;" d="M 361.257813 193.128906 C 361.257813 192.28125 361.125 191.476563 360.863281 190.703125 C 360.597656 189.933594 360.21875 189.257813 359.71875 188.667969 C 359.214844 188.085938 358.597656 187.617188 357.859375 187.273438 C 357.121094 186.921875 356.273438 186.746094 355.324219 186.746094 C 354.371094 186.746094 353.527344 186.921875 352.789063 187.273438 C 352.050781 187.617188 351.433594 188.085938 350.929688 188.667969 C 350.429688 189.257813 350.046875 189.933594 349.785156 190.703125 C 349.523438 191.476563 349.390625 192.28125 349.390625 193.128906 C 349.390625 193.976563 349.523438 194.78125 349.785156 195.554688 C 350.046875 196.328125 350.429688 197.011719 350.929688 197.605469 C 351.433594 198.207031 352.050781 198.679688 352.789063 199.023438 C 353.527344 199.371094 354.371094 199.546875 355.324219 199.546875 C 356.273438 199.546875 357.121094 199.371094 357.859375 199.023438 C 358.597656 198.679688 359.214844 198.207031 359.71875 197.605469 C 360.21875 197.011719 360.597656 196.328125 360.863281 195.554688 C 361.125 194.78125 361.257813 193.976563 361.257813 193.128906 Z M 364.925781 193.109375 C 364.925781 194.480469 364.679688 195.742188 364.195313 196.890625 C 363.707031 198.039063 363.03125 199.03125 362.171875 199.863281 C 361.3125 200.703125 360.296875 201.351563 359.121094 201.8125 C 357.949219 202.273438 356.691406 202.503906 355.34375 202.503906 C 353.996094 202.503906 352.734375 202.273438 351.5625 201.8125 C 350.390625 201.351563 349.378906 200.703125 348.53125 199.863281 C 347.683594 199.03125 347.015625 198.039063 346.527344 196.890625 C 346.042969 195.742188 345.800781 194.480469 345.800781 193.109375 C 345.800781 191.738281 346.042969 190.484375 346.527344 189.351563 C 347.015625 188.214844 347.683594 187.234375 348.53125 186.410156 C 349.378906 185.589844 350.390625 184.945313 351.5625 184.484375 C 352.734375 184.023438 353.996094 183.789063 355.34375 183.789063 C 356.691406 183.789063 357.949219 184.023438 359.121094 184.484375 C 360.296875 184.945313 361.3125 185.589844 362.171875 186.410156 C 363.03125 187.234375 363.707031 188.214844 364.195313 189.351563 C 364.679688 190.484375 364.925781 191.738281 364.925781 193.109375 "/>
<path style=" stroke:none;fill-rule:nonzero;fill:rgb(56.861877%,56.077576%,56.274414%);fill-opacity:1;" d="M 372.96875 184.277344 C 373.019531 184.726563 373.058594 185.230469 373.082031 185.792969 C 373.105469 186.355469 373.117188 186.820313 373.117188 187.195313 L 373.230469 187.195313 C 373.457031 186.726563 373.761719 186.277344 374.148438 185.867188 C 374.535156 185.457031 374.976563 185.097656 375.476563 184.78125 C 375.976563 184.472656 376.523438 184.230469 377.125 184.054688 C 377.722656 183.878906 378.347656 183.789063 378.996094 183.789063 C 380.144531 183.789063 381.128906 183.984375 381.953125 184.371094 C 382.773438 184.757813 383.460938 185.273438 384.011719 185.925781 C 384.558594 186.574219 384.964844 187.335938 385.226563 188.210938 C 385.488281 189.082031 385.621094 190.019531 385.621094 191.015625 L 385.621094 202.019531 L 382.101563 202.019531 L 382.101563 192.175781 C 382.101563 191.453125 382.046875 190.765625 381.933594 190.113281 C 381.820313 189.46875 381.613281 188.894531 381.316406 188.394531 C 381.015625 187.898438 380.605469 187.496094 380.078125 187.195313 C 379.558594 186.898438 378.882813 186.746094 378.058594 186.746094 C 376.660156 186.746094 375.519531 187.277344 374.636719 188.339844 C 373.75 189.398438 373.308594 190.816406 373.308594 192.589844 L 373.308594 202.019531 L 369.789063 202.019531 L 369.789063 188.097656 C 369.789063 187.621094 369.773438 187.011719 369.75 186.261719 C 369.726563 185.515625 369.6875 184.851563 369.640625 184.277344 L 372.96875 184.277344 "/>
<path style=" stroke:none;fill-rule:nonzero;fill:rgb(56.861877%,56.077576%,56.274414%);fill-opacity:1;" d="M 409.609375 187.160156 L 404.894531 187.160156 L 404.894531 196.378906 C 404.894531 197.445313 405.09375 198.210938 405.492188 198.667969 C 405.890625 199.132813 406.527344 199.359375 407.402344 199.359375 C 407.726563 199.359375 408.074219 199.328125 408.449219 199.257813 C 408.824219 199.1875 409.160156 199.085938 409.460938 198.949219 L 409.570313 201.832031 C 409.148438 201.980469 408.679688 202.101563 408.167969 202.1875 C 407.65625 202.273438 407.125 202.316406 406.578125 202.316406 C 404.90625 202.316406 403.628906 201.855469 402.742188 200.933594 C 401.855469 200.011719 401.414063 198.625 401.414063 196.777344 L 401.414063 187.160156 L 398.007813 187.160156 L 398.007813 184.277344 L 401.414063 184.277344 L 401.414063 179.1875 L 404.894531 179.1875 L 404.894531 184.277344 L 409.609375 184.277344 L 409.609375 187.160156 "/>
<path style=" stroke:none;fill-rule:nonzero;fill:rgb(56.861877%,56.077576%,56.274414%);fill-opacity:1;" d="M 425.738281 202.019531 C 425.691406 201.566406 425.652344 201.0625 425.628906 200.503906 C 425.605469 199.941406 425.589844 199.472656 425.589844 199.101563 L 425.515625 199.101563 C 425.066406 200.046875 424.3125 200.851563 423.253906 201.511719 C 422.191406 202.175781 421.011719 202.503906 419.714844 202.503906 C 418.566406 202.503906 417.574219 202.316406 416.738281 201.941406 C 415.902344 201.566406 415.21875 201.050781 414.683594 200.390625 C 414.144531 199.730469 413.746094 198.964844 413.480469 198.089844 C 413.222656 197.214844 413.089844 196.277344 413.089844 195.28125 L 413.089844 184.277344 L 416.609375 184.277344 L 416.609375 194.085938 C 416.609375 194.808594 416.664063 195.5 416.777344 196.160156 C 416.890625 196.820313 417.09375 197.402344 417.394531 197.898438 C 417.695313 198.398438 418.105469 198.796875 418.628906 199.101563 C 419.152344 199.398438 419.828125 199.546875 420.648438 199.546875 C 422.074219 199.546875 423.21875 199.019531 424.09375 197.957031 C 424.96875 196.898438 425.402344 195.480469 425.402344 193.710938 L 425.402344 184.277344 L 428.921875 184.277344 L 428.921875 198.203125 C 428.921875 198.675781 428.933594 199.285156 428.960938 200.035156 C 428.984375 200.78125 429.019531 201.441406 429.070313 202.019531 L 425.738281 202.019531 "/>
<path style=" stroke:none;fill-rule:nonzero;fill:rgb(56.861877%,56.077576%,56.274414%);fill-opacity:1;" d="M 447.558594 184.277344 C 447.609375 184.726563 447.644531 185.230469 447.671875 185.792969 C 447.695313 186.355469 447.710938 186.820313 447.710938 187.195313 L 447.820313 187.195313 C 448.046875 186.726563 448.351563 186.277344 448.738281 185.867188 C 449.125 185.457031 449.566406 185.097656 450.066406 184.78125 C 450.566406 184.472656 451.113281 184.230469 451.714844 184.054688 C 452.3125 183.878906 452.9375 183.789063 453.585938 183.789063 C 454.730469 183.789063 455.71875 183.984375 456.542969 184.371094 C 457.363281 184.757813 458.050781 185.273438 458.601563 185.925781 C 459.148438 186.574219 459.554688 187.335938 459.816406 188.210938 C 460.078125 189.082031 460.210938 190.019531 460.210938 191.015625 L 460.210938 202.019531 L 456.691406 202.019531 L 456.691406 192.175781 C 456.691406 191.453125 456.636719 190.765625 456.523438 190.113281 C 456.410156 189.46875 456.203125 188.894531 455.90625 188.394531 C 455.605469 187.898438 455.195313 187.496094 454.671875 187.195313 C 454.144531 186.898438 453.472656 186.746094 452.648438 186.746094 C 451.253906 186.746094 450.109375 187.277344 449.226563 188.339844 C 448.339844 189.398438 447.894531 190.816406 447.894531 192.589844 L 447.894531 202.019531 L 444.378906 202.019531 L 444.378906 188.097656 C 444.378906 187.621094 444.363281 187.011719 444.339844 186.261719 C 444.316406 185.515625 444.277344 184.851563 444.230469 184.277344 L 447.558594 184.277344 "/>
<path style=" stroke:none;fill-rule:nonzero;fill:rgb(56.861877%,56.077576%,56.274414%);fill-opacity:1;" d="M 479.144531 191.578125 C 479.121094 190.878906 479.003906 190.222656 478.789063 189.609375 C 478.578125 189 478.265625 188.46875 477.855469 188.019531 C 477.441406 187.570313 476.929688 187.21875 476.320313 186.957031 C 475.707031 186.691406 474.992188 186.5625 474.167969 186.5625 C 473.421875 186.5625 472.714844 186.691406 472.054688 186.957031 C 471.394531 187.21875 470.816406 187.570313 470.332031 188.019531 C 469.847656 188.46875 469.445313 189 469.136719 189.609375 C 468.820313 190.222656 468.640625 190.878906 468.59375 191.578125 Z M 482.738281 192.996094 C 482.738281 193.199219 482.738281 193.398438 482.738281 193.597656 C 482.738281 193.796875 482.726563 193.996094 482.699219 194.195313 L 468.59375 194.195313 C 468.617188 194.9375 468.785156 195.640625 469.097656 196.292969 C 469.410156 196.953125 469.828125 197.523438 470.351563 198.007813 C 470.875 198.488281 471.480469 198.867188 472.164063 199.140625 C 472.851563 199.410156 473.582031 199.546875 474.355469 199.546875 C 475.554688 199.546875 476.589844 199.285156 477.460938 198.761719 C 478.335938 198.238281 479.019531 197.601563 479.519531 196.855469 L 481.992188 198.835938 C 481.042969 200.09375 479.925781 201.019531 478.640625 201.613281 C 477.355469 202.207031 475.929688 202.503906 474.355469 202.503906 C 473.007813 202.503906 471.761719 202.277344 470.613281 201.832031 C 469.464844 201.382813 468.480469 200.753906 467.65625 199.941406 C 466.832031 199.132813 466.183594 198.148438 465.710938 197.003906 C 465.234375 195.855469 465 194.585938 465 193.1875 C 465 191.8125 465.230469 190.546875 465.691406 189.386719 C 466.15625 188.226563 466.800781 187.234375 467.625 186.410156 C 468.449219 185.589844 469.425781 184.945313 470.550781 184.484375 C 471.675781 184.023438 472.886719 183.789063 474.1875 183.789063 C 475.488281 183.789063 476.667969 184.003906 477.730469 184.429688 C 478.792969 184.851563 479.695313 185.464844 480.433594 186.261719 C 481.171875 187.0625 481.738281 188.027344 482.140625 189.160156 C 482.539063 190.296875 482.738281 191.578125 482.738281 192.996094 "/>
<path style=" stroke:none;fill-rule:nonzero;fill:rgb(56.861877%,56.077576%,56.274414%);fill-opacity:1;" d="M 490.035156 192.960938 C 490.035156 193.785156 490.167969 194.570313 490.433594 195.316406 C 490.695313 196.066406 491.082031 196.730469 491.597656 197.304688 C 492.109375 197.878906 492.726563 198.339844 493.453125 198.6875 C 494.179688 199.035156 495.007813 199.210938 495.933594 199.210938 C 496.832031 199.210938 497.660156 199.046875 498.410156 198.726563 C 499.160156 198.398438 499.800781 197.957031 500.324219 197.398438 C 500.851563 196.835938 501.257813 196.171875 501.542969 195.410156 C 501.832031 194.652344 501.976563 193.835938 501.976563 192.960938 C 501.976563 192.113281 501.832031 191.3125 501.542969 190.5625 C 501.257813 189.816406 500.84375 189.15625 500.304688 188.582031 C 499.769531 188.007813 499.128906 187.554688 498.390625 187.21875 C 497.652344 186.878906 496.832031 186.710938 495.933594 186.710938 C 495.007813 186.710938 494.179688 186.878906 493.453125 187.21875 C 492.726563 187.554688 492.109375 188.003906 491.597656 188.5625 C 491.082031 189.125 490.695313 189.785156 490.433594 190.546875 C 490.167969 191.308594 490.035156 192.113281 490.035156 192.960938 Z M 488.988281 205.050781 C 489.761719 205.921875 490.730469 206.621094 491.890625 207.144531 C 493.050781 207.667969 494.242188 207.933594 495.464844 207.933594 C 496.636719 207.933594 497.621094 207.765625 498.421875 207.425781 C 499.21875 207.089844 499.863281 206.625 500.347656 206.042969 C 500.835938 205.457031 501.183594 204.761719 501.394531 203.964844 C 501.605469 203.167969 501.714844 202.304688 501.714844 201.382813 L 501.714844 199.101563 L 501.640625 199.101563 C 500.992188 200.097656 500.105469 200.855469 498.980469 201.382813 C 497.859375 201.90625 496.660156 202.167969 495.390625 202.167969 C 494.042969 202.167969 492.8125 201.933594 491.703125 201.457031 C 490.59375 200.980469 489.648438 200.335938 488.878906 199.511719 C 488.105469 198.6875 487.503906 197.722656 487.078125 196.609375 C 486.65625 195.5 486.445313 194.308594 486.445313 193.035156 C 486.445313 191.765625 486.65625 190.5625 487.078125 189.441406 C 487.503906 188.320313 488.105469 187.339844 488.878906 186.507813 C 489.648438 185.667969 490.585938 185.007813 491.683594 184.523438 C 492.78125 184.035156 494.003906 183.789063 495.351563 183.789063 C 496.625 183.789063 497.839844 184.066406 499 184.613281 C 500.160156 185.164063 501.078125 186 501.753906 187.121094 L 501.824219 187.121094 L 501.824219 184.277344 L 505.230469 184.277344 L 505.230469 201.117188 C 505.230469 202.417969 505.070313 203.65625 504.746094 204.84375 C 504.421875 206.027344 503.871094 207.074219 503.101563 207.984375 C 502.324219 208.898438 501.316406 209.628906 500.066406 210.175781 C 498.820313 210.726563 497.273438 211 495.425781 211 C 493.878906 211 492.324219 210.71875 490.769531 210.15625 C 489.207031 209.597656 487.867188 208.804688 486.742188 207.78125 L 488.988281 205.050781 "/>
<path style=" stroke:none;fill-rule:nonzero;fill:rgb(56.861877%,56.077576%,56.274414%);fill-opacity:1;" d="M 525.554688 193.128906 C 525.554688 192.28125 525.425781 191.476563 525.160156 190.703125 C 524.898438 189.933594 524.515625 189.257813 524.015625 188.667969 C 523.515625 188.085938 522.894531 187.617188 522.15625 187.273438 C 521.417969 186.921875 520.574219 186.746094 519.621094 186.746094 C 518.671875 186.746094 517.824219 186.921875 517.089844 187.273438 C 516.351563 187.617188 515.730469 188.085938 515.230469 188.667969 C 514.730469 189.257813 514.347656 189.933594 514.085938 190.703125 C 513.820313 191.476563 513.691406 192.28125 513.691406 193.128906 C 513.691406 193.976563 513.820313 194.78125 514.085938 195.554688 C 514.347656 196.328125 514.730469 197.011719 515.230469 197.605469 C 515.730469 198.207031 516.351563 198.679688 517.089844 199.023438 C 517.824219 199.371094 518.671875 199.546875 519.621094 199.546875 C 520.574219 199.546875 521.417969 199.371094 522.15625 199.023438 C 522.894531 198.679688 523.515625 198.207031 524.015625 197.605469 C 524.515625 197.011719 524.898438 196.328125 525.160156 195.554688 C 525.425781 194.78125 525.554688 193.976563 525.554688 193.128906 Z M 529.222656 193.109375 C 529.222656 194.480469 528.980469 195.742188 528.492188 196.890625 C 528.007813 198.039063 527.332031 199.03125 526.472656 199.863281 C 525.609375 200.703125 524.59375 201.351563 523.421875 201.8125 C 522.25 202.273438 520.988281 202.503906 519.640625 202.503906 C 518.296875 202.503906 517.035156 202.273438 515.863281 201.8125 C 514.6875 201.351563 513.679688 200.703125 512.828125 199.863281 C 511.980469 199.03125 511.3125 198.039063 510.828125 196.890625 C 510.339844 195.742188 510.097656 194.480469 510.097656 193.109375 C 510.097656 191.738281 510.339844 190.484375 510.828125 189.351563 C 511.3125 188.214844 511.980469 187.234375 512.828125 186.410156 C 513.679688 185.589844 514.6875 184.945313 515.863281 184.484375 C 517.035156 184.023438 518.296875 183.789063 519.640625 183.789063 C 520.988281 183.789063 522.25 184.023438 523.421875 184.484375 C 524.59375 184.945313 525.609375 185.589844 526.472656 186.410156 C 527.332031 187.234375 528.007813 188.214844 528.492188 189.351563 C 528.980469 190.484375 529.222656 191.738281 529.222656 193.109375 "/>
<path style=" stroke:none;fill-rule:nonzero;fill:rgb(56.861877%,56.077576%,56.274414%);fill-opacity:1;" d="M 546.515625 188.769531 C 546.140625 188.195313 545.578125 187.714844 544.828125 187.328125 C 544.078125 186.941406 543.28125 186.746094 542.433594 186.746094 C 541.511719 186.746094 540.691406 186.921875 539.980469 187.273438 C 539.269531 187.621094 538.664063 188.089844 538.167969 188.675781 C 537.667969 189.261719 537.289063 189.941406 537.023438 190.714844 C 536.765625 191.488281 536.632813 192.300781 536.632813 193.148438 C 536.632813 193.996094 536.765625 194.808594 537.023438 195.582031 C 537.289063 196.355469 537.667969 197.035156 538.167969 197.621094 C 538.664063 198.207031 539.277344 198.675781 540 199.023438 C 540.726563 199.371094 541.546875 199.546875 542.472656 199.546875 C 543.367188 199.546875 544.1875 199.371094 544.921875 199.023438 C 545.65625 198.675781 546.265625 198.203125 546.738281 197.601563 L 549.097656 199.734375 C 548.347656 200.609375 547.410156 201.289063 546.289063 201.773438 C 545.164063 202.261719 543.894531 202.503906 542.472656 202.503906 C 541.097656 202.503906 539.832031 202.277344 538.671875 201.832031 C 537.511719 201.382813 536.507813 200.753906 535.660156 199.941406 C 534.8125 199.132813 534.144531 198.148438 533.65625 197.003906 C 533.171875 195.855469 532.929688 194.570313 532.929688 193.148438 C 532.929688 191.75 533.164063 190.480469 533.640625 189.332031 C 534.113281 188.183594 534.773438 187.195313 535.621094 186.371094 C 536.46875 185.550781 537.476563 184.914063 538.636719 184.464844 C 539.796875 184.015625 541.050781 183.789063 542.394531 183.789063 C 543.644531 183.789063 544.886719 184.039063 546.121094 184.539063 C 547.355469 185.039063 548.335938 185.761719 549.058594 186.710938 L 546.515625 188.769531 "/>
<path style=" stroke:none;fill-rule:nonzero;fill:rgb(56.861877%,56.077576%,56.274414%);fill-opacity:1;" d="M 556.132813 202.019531 L 552.613281 202.019531 L 552.613281 184.277344 L 556.132813 184.277344 Z M 556.691406 177.878906 C 556.691406 178.527344 556.464844 179.0625 556.007813 179.488281 C 555.546875 179.910156 554.996094 180.121094 554.355469 180.121094 C 553.710938 180.121094 553.164063 179.90625 552.71875 179.46875 C 552.273438 179.03125 552.050781 178.503906 552.050781 177.878906 C 552.050781 177.230469 552.273438 176.6875 552.71875 176.25 C 553.164063 175.8125 553.710938 175.597656 554.355469 175.597656 C 554.996094 175.597656 555.546875 175.8125 556.007813 176.25 C 556.464844 176.6875 556.691406 177.230469 556.691406 177.878906 "/>
<path style=" stroke:none;fill-rule:nonzero;fill:rgb(56.861877%,56.077576%,56.274414%);fill-opacity:1;" d="M 576.5625 193.128906 C 576.5625 192.28125 576.433594 191.476563 576.171875 190.703125 C 575.90625 189.933594 575.527344 189.257813 575.027344 188.667969 C 574.523438 188.085938 573.90625 187.617188 573.167969 187.273438 C 572.429688 186.921875 571.585938 186.746094 570.632813 186.746094 C 569.683594 186.746094 568.835938 186.921875 568.097656 187.273438 C 567.359375 187.617188 566.742188 188.085938 566.238281 188.667969 C 565.738281 189.257813 565.359375 189.933594 565.097656 190.703125 C 564.832031 191.476563 564.699219 192.28125 564.699219 193.128906 C 564.699219 193.976563 564.832031 194.78125 565.097656 195.554688 C 565.359375 196.328125 565.738281 197.011719 566.238281 197.605469 C 566.742188 198.207031 567.359375 198.679688 568.097656 199.023438 C 568.835938 199.371094 569.683594 199.546875 570.632813 199.546875 C 571.585938 199.546875 572.429688 199.371094 573.167969 199.023438 C 573.90625 198.679688 574.523438 198.207031 575.027344 197.605469 C 575.527344 197.011719 575.90625 196.328125 576.171875 195.554688 C 576.433594 194.78125 576.5625 193.976563 576.5625 193.128906 Z M 580.234375 193.109375 C 580.234375 194.480469 579.988281 195.742188 579.503906 196.890625 C 579.015625 198.039063 578.34375 199.03125 577.480469 199.863281 C 576.621094 200.703125 575.605469 201.351563 574.433594 201.8125 C 573.257813 202.273438 572 202.503906 570.652344 202.503906 C 569.304688 202.503906 568.042969 202.273438 566.871094 201.8125 C 565.699219 201.351563 564.6875 200.703125 563.839844 199.863281 C 562.992188 199.03125 562.324219 198.039063 561.839844 196.890625 C 561.351563 195.742188 561.109375 194.480469 561.109375 193.109375 C 561.109375 191.738281 561.351563 190.484375 561.839844 189.351563 C 562.324219 188.214844 562.992188 187.234375 563.839844 186.410156 C 564.6875 185.589844 565.699219 184.945313 566.871094 184.484375 C 568.042969 184.023438 569.304688 183.789063 570.652344 183.789063 C 572 183.789063 573.257813 184.023438 574.433594 184.484375 C 575.605469 184.945313 576.621094 185.589844 577.480469 186.410156 C 578.34375 187.234375 579.015625 188.214844 579.503906 189.351563 C 579.988281 190.484375 580.234375 191.738281 580.234375 193.109375 "/>
<path style=" stroke:none;fill-rule:nonzero;fill:rgb(56.861877%,56.077576%,56.274414%);fill-opacity:1;" d="M 588.988281 199.773438 C 588.988281 200.421875 588.753906 200.992188 588.277344 201.492188 C 587.804688 201.992188 587.207031 202.242188 586.480469 202.242188 C 585.785156 202.242188 585.191406 202 584.703125 201.511719 C 584.21875 201.023438 583.976563 200.460938 583.976563 199.8125 C 583.976563 199.136719 584.210938 198.558594 584.6875 198.070313 C 585.160156 197.582031 585.757813 197.339844 586.480469 197.339844 C 587.207031 197.339844 587.804688 197.578125 588.277344 198.050781 C 588.753906 198.523438 588.988281 199.101563 588.988281 199.773438 "/>
</g>
</svg>
